<svg id="Component_76_1" data-name="Component 76 – 1" xmlns="http://www.w3.org/2000/svg" width="22" height="21.5" viewBox="0 0 22 21.5">
  <path id="Today" d="M0,2A2,2,0,0,1,1.991,0H20.009A2,2,0,0,1,22,2V19.5a2,2,0,0,1-1.991,2H1.991A2,2,0,0,1,0,19.5Zm1,3.99A1,1,0,0,1,1.992,5H20.008A.994.994,0,0,1,21,5.993V19.507a1,1,0,0,1-.992.993H1.992A.994.994,0,0,1,1,19.507ZM18.25,9a.75.75,0,1,0-.75-.75A.75.75,0,0,0,18.25,9Zm-7,0a.75.75,0,1,0-.75-.75A.75.75,0,0,0,11.25,9Zm0,4.5a.75.75,0,1,0-.75-.75A.75.75,0,0,0,11.25,13.5Zm-3.5,0A.75.75,0,1,0,7,12.75.75.75,0,0,0,7.75,13.5Zm-3.5,0a.75.75,0,1,0-.75-.75A.75.75,0,0,0,4.25,13.5Zm14,0a.75.75,0,1,0-.75-.75A.75.75,0,0,0,18.25,13.5ZM14.75,18a.75.75,0,1,0-.75-.75A.75.75,0,0,0,14.75,18Zm-7,0A.75.75,0,1,0,7,17.25.75.75,0,0,0,7.75,18Zm3.5,0a.75.75,0,1,0-.75-.75A.75.75,0,0,0,11.25,18Zm-7,0a.75.75,0,1,0-.75-.75A.75.75,0,0,0,4.25,18Zm10.5-3.5A1.75,1.75,0,1,0,13,12.75,1.75,1.75,0,0,0,14.75,14.5Zm0-5.5A.75.75,0,1,0,14,8.25.75.75,0,0,0,14.75,9Zm-7,0A.75.75,0,1,0,7,8.25.75.75,0,0,0,7.75,9Z" fill-rule="evenodd"/>
</svg>
