<svg id="Layer_2" data-name="Layer 2" xmlns="http://www.w3.org/2000/svg" width="52.2" height="52.17" viewBox="0 0 52.2 52.17">
  <g id="Object" transform="translate(-0.201 -0.201)">
    <circle id="Ellipse_63" data-name="Ellipse 63" cx="26" cy="26" r="26" transform="translate(0.201 0.201)" fill="#f3d065"/>
    <path id="Path_27" data-name="Path 27" d="M79.048,40.29A26.205,26.205,0,0,1,43.26,76.734,26.2,26.2,0,1,0,79.048,40.29Z" transform="translate(-39.139 -36.451)" fill="#efc45c"/>
    <path id="Path_28" data-name="Path 28" d="M20.181,47.339A24.326,24.326,0,0,1,63.79,32.51,24.328,24.328,0,1,0,23.413,59.465a24.216,24.216,0,0,1-3.232-12.126Z" transform="translate(-16.62 -18.375)" fill="#f5d783"/>
    <ellipse id="Ellipse_64" data-name="Ellipse 64" cx="1.93" cy="3.254" rx="1.93" ry="3.254" transform="translate(14.618 16.59)" fill="#333"/>
    <ellipse id="Ellipse_65" data-name="Ellipse 65" cx="1.93" cy="3.254" rx="1.93" ry="3.254" transform="translate(33.923 16.59)" fill="#333"/>
    <path id="Path_29" data-name="Path 29" d="M90.21,301a17.72,17.72,0,0,0,35.212,0Z" transform="translate(-81.615 -272.322)" fill="#635445"/>
    <path id="Path_30" data-name="Path 30" d="M147.36,390.661a17.7,17.7,0,0,0,23.907.381l-.162-.381C159.281,384.9,147.516,390.583,147.36,390.661Z" transform="translate(-133.32 -351.107)" fill="#d46669"/>
  </g>
</svg>
