<svg id="meal" xmlns="http://www.w3.org/2000/svg" width="124.914" height="124.999" viewBox="0 0 124.914 124.999">
  <g id="Group_169" data-name="Group 169" transform="translate(0 0)">
    <g id="Group_168" data-name="Group 168">
      <path id="Path_31" data-name="Path 31" d="M122.923,288.546c-3.75-5-7.5-5-16.667-.208L88.34,299.379c-2.5,1.458-8.125,1.875-13.333,1.875q1.563-2.812-1.25-6.875a18.267,18.267,0,0,0-15-7.708H50.632a19.664,19.664,0,0,1-11.875-3.75c-7.517-5.638-19.272.5-25,4.156v-4.364H-.826v54.166H13.757v-6.25H40.84c4.167,0,8.542-.417,12.708-.625l27.083-4.167a12.288,12.288,0,0,0,2.917-.417,13.673,13.673,0,0,0,6.875-3.542l31.458-25A6.174,6.174,0,0,0,122.923,288.546ZM9.59,332.712H3.34V286.879H9.59v45.833Zm109.791-38.541L87.715,318.754l-.208.208a8.72,8.72,0,0,1-4.583,2.292h-.208a8.549,8.549,0,0,1-2.292.208l-27.5,4.167a78.541,78.541,0,0,1-12.083.833H13.757V292.088c5-3.542,16.667-10.208,22.5-5.625a24.611,24.611,0,0,0,14.375,4.583h8.125a13.761,13.761,0,0,1,11.875,6.25,3.849,3.849,0,0,1,.833,2.917c-.625,1.042-3.125,1.458-5.833,1.667H44.59c-6.458,0-10.417,3.125-10.417,8.333a2.083,2.083,0,0,0,4.166,0c0-1.042,0-4.167,6.25-4.167H66.882c9.792.208,18.958,0,23.75-2.5L108.548,292.5c8.75-4.375,9.583-3.333,11.25-.833A1.964,1.964,0,0,1,119.381,294.171Z" transform="translate(0.826 -211.88)"/>
      <path id="Path_32" data-name="Path 32" d="M41.445,64.833a2.572,2.572,0,0,0,1.667.833h89.166a1.65,1.65,0,0,0,1.667-1.042l7.5-10.417a1.916,1.916,0,0,0,.208-2.083,2.188,2.188,0,0,0-1.875-1.042h-4.215A47.923,47.923,0,0,0,89.778,5.3V3.166h4.167a1.968,1.968,0,0,0,2.083-2.083A1.968,1.968,0,0,0,93.945-1h-12.5a1.968,1.968,0,0,0-2.083,2.083,1.968,1.968,0,0,0,2.083,2.083h4.167V5.3A47.923,47.923,0,0,0,39.826,51.083H35.611a2.11,2.11,0,0,0-1.875,1.25,2.466,2.466,0,0,0,.208,2.083ZM87.695,9.417a43.761,43.761,0,0,1,43.75,41.666h-87.5A44.047,44.047,0,0,1,87.695,9.417ZM41.861,55.25h93.749l-4.375,6.25H44.153l-4.375-6.25Z" transform="translate(-25.195 1)"/>
      <path id="Path_33" data-name="Path 33" d="M148.126,58.733a40.137,40.137,0,0,0-34.375,19.792,2.307,2.307,0,0,0,.833,2.917,1.879,1.879,0,0,0,1.042.208,2.188,2.188,0,0,0,1.875-1.042A35.7,35.7,0,0,1,148.126,62.9a2.083,2.083,0,0,0,0-4.167Z" transform="translate(-85.626 -44.15)"/>
    </g>
  </g>
</svg>
