<svg id="pray" xmlns="http://www.w3.org/2000/svg" width="108.843" height="125" viewBox="0 0 108.843 125">
  <g id="Group_170" data-name="Group 170" transform="translate(0)">
    <path id="Path_34" data-name="Path 34" d="M67.571,221.059a2.44,2.44,0,0,0,2.955,1.786l11.8-2.909a2.442,2.442,0,0,0,1.857-2.339c.311-23.935.44-24.244,7.214-40.447l6.543-14.663a2.441,2.441,0,1,0-4.454-2L86.9,175.266c-6.814,16.3-7.25,17.342-7.567,40.38L69.357,218.1A2.442,2.442,0,0,0,67.571,221.059Z" transform="translate(-59.098 -120.216)"/>
    <path id="Path_35" data-name="Path 35" d="M371.152,480.317a80.753,80.753,0,0,1-17.556-3.663,2.441,2.441,0,1,0-1.547,4.631,85.723,85.723,0,0,0,18.634,3.892q.12.011.238.011a2.441,2.441,0,0,0,.232-4.872Z" transform="translate(-272.917 -360.189)"/>
    <path id="Path_36" data-name="Path 36" d="M144.712,155.518l11.8,2.909a2.442,2.442,0,1,0,1.169-4.741l-9.972-2.458c-.316-23.038-.752-24.081-7.567-40.38l-14.6-32.6a7.6,7.6,0,0,0-12.026-2.442,7.6,7.6,0,0,0-12.027,2.442,2.441,2.441,0,0,0,4.454,2,2.624,2.624,0,0,1,3.508-1.329c.763.313,1.928,1.146,1.161,3.208l-6.879,18.489a7.711,7.711,0,0,0-5.936,5.886c-1.151,4.508-2.19,8.85-3.2,13.049-.509,2.125-1.017,4.251-1.542,6.4a2.441,2.441,0,0,0,4.744,1.155c.526-2.16,1.036-4.291,1.546-6.423,1-4.182,2.036-8.506,3.177-12.978.321-1.257,1.245-2.451,2.591-2.3l.072.009a2.3,2.3,0,0,1,1.962,2.564c-.157,1.26-.424,3.717-.682,6.092-.256,2.357-.521,4.794-.673,6.015-.836,6.7-.588,7.509,1.6,11.791.416.813.888,1.735,1.46,2.924,2.536,5.182,2.109,12.285-1.343,22.354-3.682,10.741-22.185,17.257-37.818,18.766a2.442,2.442,0,0,0,.232,4.872c.078,0,.158,0,.238-.011,17.714-1.71,37.561-9.189,41.967-22.043q.785-2.29,1.377-4.415.594,2.128,1.376,4.415a20.8,20.8,0,0,0,5.342,8.077,2.441,2.441,0,1,0,3.407-3.5,16,16,0,0,1-4.13-6.163c-3.452-10.069-3.879-17.172-1.335-22.369.564-1.173,1.036-2.095,1.452-2.908,2.192-4.281,2.439-5.086,1.6-11.791-.153-1.223-.418-3.665-.674-6.026s-.524-4.824-.681-6.081a2.317,2.317,0,0,1,1.963-2.564l.071-.009c1.346-.147,2.271,1.047,2.592,2.3,1.14,4.467,2.174,8.786,3.174,12.963.511,2.137,1.023,4.274,1.55,6.439a2.441,2.441,0,0,0,4.744-1.155c-.526-2.159-1.036-4.29-1.546-6.42-1-4.194-2.042-8.531-3.191-13.034a7.71,7.71,0,0,0-5.936-5.886l-6.879-18.489c-.767-2.062.4-2.9,1.161-3.208a2.624,2.624,0,0,1,3.508,1.329l14.548,32.479c6.774,16.2,6.9,16.512,7.214,40.447A2.441,2.441,0,0,0,144.712,155.518Zm-26.271-53.961a7.194,7.194,0,0,0-3.4,7.032c.152,1.219.416,3.652.672,6,.259,2.38.526,4.842.683,6.1.682,5.471.682,5.471-1.1,8.962-.408.8-.916,1.79-1.5,3-.092.188-.181.379-.267.571-.084-.187-.17-.372-.26-.555-.59-1.228-1.1-2.22-1.507-3.018-1.787-3.491-1.787-3.491-1.1-8.962.157-1.26.424-3.717.682-6.092.256-2.357.521-4.794.673-6.015a7.2,7.2,0,0,0-3.4-7.032l4.92-13.223Z" transform="translate(-59.1 -55.798)"/>
    <path id="Path_37" data-name="Path 37" d="M248.442,12.857a2.442,2.442,0,0,0,2.441-2.441V2.441a2.441,2.441,0,0,0-4.883,0v7.974A2.441,2.441,0,0,0,248.442,12.857Z" transform="translate(-194.021)"/>
    <path id="Path_38" data-name="Path 38" d="M143.858,39.092a2.441,2.441,0,0,0,4.228-2.441L144.1,29.745a2.441,2.441,0,1,0-4.228,2.441Z" transform="translate(-113.554 -21.56)"/>
    <path id="Path_39" data-name="Path 39" d="M62.833,111.012,69.739,115a2.441,2.441,0,1,0,2.441-4.228l-6.906-3.987a2.441,2.441,0,1,0-2.441,4.228Z" transform="translate(-54.649 -80.466)"/>
    <path id="Path_40" data-name="Path 40" d="M45.946,215.354a2.442,2.442,0,0,0-2.441-2.441H35.53a2.441,2.441,0,0,0,0,4.883H43.5A2.441,2.441,0,0,0,45.946,215.354Z" transform="translate(-33.089 -160.933)"/>
    <path id="Path_41" data-name="Path 41" d="M337.346,39.986a2.44,2.44,0,0,0,3.335-.894l3.987-6.906a2.441,2.441,0,0,0-4.228-2.441l-3.987,6.906A2.441,2.441,0,0,0,337.346,39.986Z" transform="translate(-262.142 -21.56)"/>
    <path id="Path_42" data-name="Path 42" d="M404.546,115.327a2.43,2.43,0,0,0,1.218-.328l6.906-3.987a2.441,2.441,0,0,0-2.441-4.228l-6.906,3.987a2.442,2.442,0,0,0,1.223,4.556Z" transform="translate(-312.011 -80.466)"/>
    <path id="Path_43" data-name="Path 43" d="M436.668,212.913h-7.974a2.441,2.441,0,0,0,0,4.883h7.974a2.441,2.441,0,0,0,0-4.883Z" transform="translate(-330.266 -160.933)"/>
    <path id="Path_44" data-name="Path 44" d="M190.817,127.186a2.44,2.44,0,0,0,3.275-1.092v0a2.441,2.441,0,1,0-3.276,1.093Z" transform="translate(-151.289 -92.638)"/>
    <path id="Path_45" data-name="Path 45" d="M316.724,461.033h0a2.442,2.442,0,1,0,1.284,3.207A2.44,2.44,0,0,0,316.722,461.033Z" transform="translate(-244.904 -348.327)"/>
  </g>
</svg>
