<svg id="settings" xmlns="http://www.w3.org/2000/svg" width="117.187" height="117.187" viewBox="0 0 117.187 117.187">
  <g id="Group_172" data-name="Group 172" transform="translate(0 39.062)">
    <g id="Group_171" data-name="Group 171">
      <path id="Path_46" data-name="Path 46" d="M72.265,189.3H70.117a1.922,1.922,0,0,1-1.809-1.262c-.238-.625-.494-1.236-.77-1.842a1.926,1.926,0,0,1,.391-2.18l1.531-1.533a5.873,5.873,0,0,0-.01-8.279l-5.519-5.519a5.873,5.873,0,0,0-8.281,0l-1.531,1.529a1.934,1.934,0,0,1-2.18.391c-.605-.275-1.217-.531-1.844-.781a1.92,1.92,0,0,1-1.268-1.812v-2.148A5.859,5.859,0,0,0,42.968,160H35.156a5.859,5.859,0,0,0-5.859,5.859v2.148a1.922,1.922,0,0,1-1.262,1.809c-.625.238-1.236.494-1.842.77a1.931,1.931,0,0,1-2.18-.391l-1.533-1.531a5.873,5.873,0,0,0-8.279,0L8.682,174.2a5.873,5.873,0,0,0,0,8.281l1.529,1.531a1.926,1.926,0,0,1,.391,2.18c-.275.605-.531,1.217-.771,1.844a1.92,1.92,0,0,1-1.822,1.26H5.859A5.859,5.859,0,0,0,0,195.156v7.812a5.859,5.859,0,0,0,5.859,5.859H8.008a1.922,1.922,0,0,1,1.809,1.262c.238.625.494,1.236.77,1.842a1.926,1.926,0,0,1-.391,2.18l-1.531,1.533a5.873,5.873,0,0,0,0,8.279l5.519,5.519a5.873,5.873,0,0,0,8.281,0L24,227.914a1.934,1.934,0,0,1,2.18-.391c.605.275,1.217.531,1.844.781a1.92,1.92,0,0,1,1.277,1.812v2.148a5.859,5.859,0,0,0,5.859,5.859h7.812a5.859,5.859,0,0,0,5.859-5.859v-2.148a1.922,1.922,0,0,1,1.262-1.809c.625-.238,1.236-.494,1.842-.77a1.931,1.931,0,0,1,2.18.391l1.533,1.531a5.875,5.875,0,0,0,8.279-.01l5.519-5.519a5.873,5.873,0,0,0,0-8.281l-1.529-1.531a1.926,1.926,0,0,1-.391-2.18c.275-.605.531-1.217.781-1.844a1.92,1.92,0,0,1,1.812-1.268h2.148a5.859,5.859,0,0,0,5.859-5.859v-7.812A5.859,5.859,0,0,0,72.265,189.3Zm1.953,13.672a1.953,1.953,0,0,1-1.953,1.953H70.117a5.879,5.879,0,0,0-5.469,3.777q-.311.82-.672,1.615a5.877,5.877,0,0,0,1.172,6.555l1.527,1.529a1.953,1.953,0,0,1,0,2.762h0l-5.519,5.52a1.953,1.953,0,0,1-2.762,0l-1.531-1.529a5.871,5.871,0,0,0-6.555-1.172c-.529.24-1.068.465-1.611.672a5.877,5.877,0,0,0-3.775,5.465v2.148a1.953,1.953,0,0,1-1.953,1.953H35.156a1.953,1.953,0,0,1-1.953-1.953v-2.148a5.879,5.879,0,0,0-3.777-5.469q-.82-.311-1.615-.672a5.879,5.879,0,0,0-6.555,1.172l-1.529,1.527a1.953,1.953,0,0,1-2.762,0h0l-5.519-5.514a1.953,1.953,0,0,1,0-2.762l1.529-1.531a5.877,5.877,0,0,0,1.172-6.555c-.24-.529-.465-1.068-.672-1.611a5.877,5.877,0,0,0-5.465-3.781H5.859a1.953,1.953,0,0,1-1.953-1.953v-7.812A1.953,1.953,0,0,1,5.859,193.2H8.008a5.879,5.879,0,0,0,5.469-3.777q.311-.82.672-1.615a5.877,5.877,0,0,0-1.172-6.555l-1.535-1.529a1.953,1.953,0,0,1,0-2.762h0l5.519-5.52a1.953,1.953,0,0,1,2.762,0l1.531,1.529a5.871,5.871,0,0,0,6.555,1.172c.529-.24,1.068-.465,1.611-.672a5.877,5.877,0,0,0,3.783-5.465v-2.148a1.953,1.953,0,0,1,1.953-1.953h7.812a1.953,1.953,0,0,1,1.953,1.953v2.148a5.879,5.879,0,0,0,3.777,5.469q.82.311,1.615.672a5.871,5.871,0,0,0,6.555-1.172l1.529-1.527a1.965,1.965,0,0,1,2.764,0l5.519,5.519a1.953,1.953,0,0,1,0,2.762l-1.529,1.531a5.877,5.877,0,0,0-1.172,6.555c.24.529.465,1.068.672,1.611a5.877,5.877,0,0,0,5.465,3.775h2.148a1.953,1.953,0,0,1,1.953,1.953v7.812Z" transform="translate(0 -160)"/>
    </g>
  </g>
  <g id="Group_174" data-name="Group 174" transform="translate(21.474 60.546)">
    <g id="Group_173" data-name="Group 173">
      <path id="Path_47" data-name="Path 47" d="M123.086,264.8c-.02-.469-.053-.936-.109-1.4-.062-.5-.137-1-.24-1.482-.068-.318-.158-.633-.244-.949q-.164-.6-.369-1.189c-.1-.271-.2-.541-.3-.809a17.4,17.4,0,0,0-.861-1.828c-.025-.045-.041-.094-.066-.139a17.325,17.325,0,0,0-1.758-2.561c-.057-.07-.121-.137-.18-.205-.27-.318-.547-.627-.838-.922-.152-.158-.312-.307-.473-.459-.2-.182-.391-.361-.586-.533q-.356-.309-.725-.6l-.32-.238A17.454,17.454,0,0,0,105.547,248c-.2,0-.391.029-.586.037-.416.012-.834.035-1.254.078-.221.023-.443.049-.664.08a17.908,17.908,0,0,0-1.893.354,17.588,17.588,0,0,0,.014,34.06.448.448,0,0,1,.1.018,18.635,18.635,0,0,0,2.047.391c.455.057.91.068,1.367.09.3.016.586.061.9.061.557,0,1.135-.037,1.725-.1a1.909,1.909,0,0,0,.2-.025c.475-.053.955-.123,1.445-.221.2-.037.377-.086.564-.129.344-.08.686-.164,1.037-.268.273-.082.539-.178.807-.271s.545-.2.822-.3.51-.227.762-.344c.328-.15.654-.3.977-.475h.012a23.118,23.118,0,0,0,5.006-3.615,6.15,6.15,0,0,0,1.047-1.281,20.85,20.85,0,0,0,2.941-8.027c.055-.377.1-.754.133-1.139.027-.353.047-.705.055-1.057,0-.111.016-.217.016-.328C123.125,265.316,123.1,265.062,123.086,264.8Zm-3.893,1.279c0,.162-.014.324-.023.484-.035.473-.1.945-.176,1.42a13.7,13.7,0,0,1-6.863,9.57c-.242.127-.48.246-.719.355l-.162.078a14.107,14.107,0,0,1-3.562,1.078c-.086.014-.174.029-.262.041-.244.035-.484.064-.723.086-.314.027-.631.043-.953.049h-.408a13.7,13.7,0,0,1-1.383-.086l-.234-.027a14.453,14.453,0,0,1-1.6-.3,13.672,13.672,0,0,1-.014-26.486v0a14.143,14.143,0,0,1,3.432-.43,13.5,13.5,0,0,1,1.67.113c.148.018.295.045.441.066.422.066.84.15,1.252.256.135.035.27.066.4.1a13.791,13.791,0,0,1,2.978,1.254c.15.088.3.18.445.271.309.2.607.391.9.613.158.115.318.229.471.352a14.092,14.092,0,0,1,1.1.977c.139.141.266.295.4.441.225.244.443.494.652.758.145.182.283.369.42.559.2.281.391.574.566.871.1.162.2.32.295.486a13.4,13.4,0,0,1,.672,1.432c.078.2.145.391.215.586.127.359.236.723.332,1.09.049.2.1.369.145.559a13.767,13.767,0,0,1,.248,1.6c.012.143.012.287.021.43C119.2,265.172,119.211,265.623,119.193,266.076Z" transform="translate(-87.959 -248)"/>
    </g>
  </g>
  <g id="Group_176" data-name="Group 176" transform="translate(21.304)">
    <g id="Group_175" data-name="Group 175">
      <path id="Path_48" data-name="Path 48" d="M177.285,41.015h-6.143a1.906,1.906,0,0,1-1.82-1.281,40.676,40.676,0,0,0-2.193-5.295,1.912,1.912,0,0,1,.375-2.205l4.355-4.361a5.859,5.859,0,0,0,0-8.283l-8.3-8.291a5.859,5.859,0,0,0-8.283,0l-4.353,4.352a1.912,1.912,0,0,1-2.2.377,40.577,40.577,0,0,0-5.3-2.205A1.906,1.906,0,0,1,142.129,12V5.859A5.859,5.859,0,0,0,136.269,0H124.551a5.859,5.859,0,0,0-5.859,5.859V12a1.906,1.906,0,0,1-1.281,1.82,40.7,40.7,0,0,0-5.295,2.2,1.908,1.908,0,0,1-2.205-.375l-4.361-4.355a5.871,5.871,0,0,0-8.283,0l-8.289,8.289a5.859,5.859,0,0,0,0,8.285l6.4,6.416a1.953,1.953,0,0,0,2.766-2.758l-6.408-6.414a1.953,1.953,0,0,1,0-2.762l8.289-8.289a1.953,1.953,0,0,1,2.762,0l4.363,4.355a5.807,5.807,0,0,0,6.711,1.1,36.952,36.952,0,0,1,4.787-1.99A5.81,5.81,0,0,0,122.6,12V5.859a1.953,1.953,0,0,1,1.953-1.953h11.719a1.953,1.953,0,0,1,1.953,1.953V12a5.808,5.808,0,0,0,3.947,5.525,36.837,36.837,0,0,1,4.789,1.992,5.821,5.821,0,0,0,6.709-1.1l4.363-4.353a1.953,1.953,0,0,1,2.762,0l8.289,8.291a1.953,1.953,0,0,1,0,2.76l-4.355,4.363a5.813,5.813,0,0,0-1.1,6.711,36.95,36.95,0,0,1,1.99,4.787,5.808,5.808,0,0,0,5.527,3.947h6.143a1.953,1.953,0,0,1,1.953,1.953V58.593a1.953,1.953,0,0,1-1.953,1.953h-6.143a5.808,5.808,0,0,0-5.525,3.947,36.8,36.8,0,0,1-1.992,4.789,5.815,5.815,0,0,0,1.1,6.709l4.355,4.363a1.953,1.953,0,0,1,0,2.762l-8.293,8.289a1.953,1.953,0,0,1-2.76,0L151.613,85a1.953,1.953,0,1,0-2.806,2.718l.048.048,6.416,6.4a5.859,5.859,0,0,0,8.283,0l8.289-8.287a5.859,5.859,0,0,0,0-8.285l-4.35-4.357a1.914,1.914,0,0,1-.377-2.2,40.576,40.576,0,0,0,2.205-5.3,1.906,1.906,0,0,1,1.82-1.289h6.143a5.859,5.859,0,0,0,5.859-5.859V46.875A5.859,5.859,0,0,0,177.285,41.015Z" transform="translate(-87.261)"/>
    </g>
  </g>
  <g id="Group_178" data-name="Group 178" transform="translate(45.951 27.356)">
    <g id="Group_177" data-name="Group 177">
      <path id="Path_49" data-name="Path 49" d="M224.673,119.475a25.416,25.416,0,0,0-35.906,0,1.953,1.953,0,0,0,2.762,2.762,21.484,21.484,0,0,1,30.586,30.179l-.2.2a1.953,1.953,0,1,0,2.714,2.81l.048-.048A25.416,25.416,0,0,0,224.673,119.475Z" transform="translate(-188.219 -112.049)"/>
    </g>
  </g>
</svg>
