<svg xmlns="http://www.w3.org/2000/svg" width="44" height="44" viewBox="0 0 44 44">
  <g id="Component_170_1" data-name="Component 170 – 1" transform="translate(0.345 0.345)">
    <g id="group-72" transform="translate(-0.345 -0.345)">
      <circle id="Background" cx="22" cy="22" r="22" transform="translate(0)" fill="#046d0f"/>
      <path id="Lunch-Icon" d="M30.892,22.941,30.823,19.7a.657.657,0,0,0-.558-.7.714.714,0,0,0-.583.7l-.034,1.437v4.03a.622.622,0,1,1-1.243,0V19.085A.639.639,0,0,1,28.411,19h-.375a.752.752,0,0,0-.74.7L27.01,25.09a.69.69,0,0,0,0,.07,1.713,1.713,0,0,0-.009.181,4.283,4.283,0,0,0,2.162,3.2V40.082a1.081,1.081,0,0,0,2.162,0V28.537a4.283,4.283,0,0,0,2.162-3.2q0-.067,0-.131a.709.709,0,0,0,0-.12L33.2,19.7a.752.752,0,0,0-.74-.7h-.33a.638.638,0,0,1,.006.085v6.082a.622.622,0,1,1-1.243,0Zm9.081,17.151a1.083,1.083,0,0,1-1.081,1.07c-.405,0-.9-.479-1.081-1V32.294a6.056,6.056,0,0,1-1.8-3.644,20.869,20.869,0,0,1,.919-6.63A6.728,6.728,0,0,1,38.57,19.21c.555-.313,1.4-.084,1.4.5V40.091Z" transform="translate(-12.027 -8.351)" fill="#fff" fill-rule="evenodd"/>
    </g>
  </g>
</svg>
