<svg id="win" xmlns="http://www.w3.org/2000/svg" width="124.934" height="124.999" viewBox="0 0 124.934 124.999">
  <path id="Path_50" data-name="Path 50" d="M59.148,78.453a7.81,7.81,0,0,0-7.808,7.809,17.714,17.714,0,0,1-4.481,11.812,13.665,13.665,0,1,0-26.761,0,17.784,17.784,0,0,1-4.48-11.812A7.809,7.809,0,0,0,0,86.261,33.415,33.415,0,0,0,19.112,116.5v25.072c0,.012,0,.025,0,.038v40.186a2.44,2.44,0,0,0,4.88,0V144.048H46.067v27.985a2.44,2.44,0,0,0,4.881,0V114.808a33.644,33.644,0,0,0,6.192-4.885,33.25,33.25,0,0,0,9.816-23.662,7.817,7.817,0,0,0-7.809-7.809Zm-25.669,8.06A8.785,8.785,0,1,1,24.694,95.3,8.794,8.794,0,0,1,33.479,86.513ZM53.69,106.472a28.821,28.821,0,0,1-6.368,4.8,2.44,2.44,0,0,0-1.255,2.132v25.758H23.992V114.915a2.441,2.441,0,0,0-1.5-2.252A28.557,28.557,0,0,1,4.88,86.261a2.928,2.928,0,0,1,5.856,0A22.767,22.767,0,0,0,33.478,109h0A22.765,22.765,0,0,0,56.22,86.261a2.928,2.928,0,0,1,5.856,0,28.406,28.406,0,0,1-8.387,20.211Zm0,0" transform="translate(0 -59.299)"/>
  <path id="Path_51" data-name="Path 51" d="M191.132,491.75a2.44,2.44,0,1,0,1.725.714A2.453,2.453,0,0,0,191.132,491.75Zm0,0" transform="translate(-142.625 -371.695)"/>
  <path id="Path_52" data-name="Path 52" d="M136.038,387.719a2.441,2.441,0,0,0-2.44,2.44V415.62a2.44,2.44,0,1,0,4.88,0V390.159A2.44,2.44,0,0,0,136.038,387.719Zm0,0" transform="translate(-100.982 -293.062)"/>
  <path id="Path_53" data-name="Path 53" d="M296.629,215.215a7.808,7.808,0,0,0-7.809,7.809,17.713,17.713,0,0,1-4.48,11.812,13.665,13.665,0,1,0-26.762,0,17.784,17.784,0,0,1-4.48-11.812,7.809,7.809,0,0,0-15.617,0,33.435,33.435,0,0,0,1.168,8.778,2.44,2.44,0,0,0,4.708-1.281,28.593,28.593,0,0,1-1-7.5,2.928,2.928,0,1,1,5.856,0,22.767,22.767,0,0,0,22.741,22.741h0A22.765,22.765,0,0,0,293.7,223.023a2.928,2.928,0,0,1,5.856,0,28.407,28.407,0,0,1-8.388,20.211,28.738,28.738,0,0,1-6.367,4.8,2.442,2.442,0,0,0-1.255,2.133v25.758H261.472V251.678a2.441,2.441,0,0,0-1.5-2.252,28.656,28.656,0,0,1-6.658-3.913,2.44,2.44,0,0,0-3.016,3.837,33.56,33.56,0,0,0,6.293,3.909v25.073c0,.012,0,.025,0,.038v6.8a2.44,2.44,0,0,0,4.88,0v-4.358h22.077v4.358a2.44,2.44,0,0,0,4.88,0v-33.6a33.622,33.622,0,0,0,6.193-4.886,33.253,33.253,0,0,0,9.816-23.662,7.817,7.817,0,0,0-7.808-7.808Zm-25.67,8.06a8.785,8.785,0,1,1-8.784,8.785A8.794,8.794,0,0,1,270.959,223.275Zm0,0" transform="translate(-179.502 -162.673)"/>
  <path id="Path_54" data-name="Path 54" d="M263.648,309.249a2.44,2.44,0,0,0-4.044,2.732l.028.041a2.44,2.44,0,1,0,4.06-2.707Zm0,0" transform="translate(-195.908 -232.937)"/>
  <path id="Path_55" data-name="Path 55" d="M440.214,104.2a2.44,2.44,0,0,0,2.44-2.439v-3.37a2.44,2.44,0,0,0-4.881,0v3.37A2.44,2.44,0,0,0,440.214,104.2Zm0,0" transform="translate(-330.896 -72.524)"/>
  <path id="Path_56" data-name="Path 56" d="M440.214,170.355a2.441,2.441,0,0,0,2.44-2.44v-3.37a2.44,2.44,0,0,0-4.881,0v3.37A2.441,2.441,0,0,0,440.214,170.355Zm0,0" transform="translate(-330.896 -122.529)"/>
  <path id="Path_57" data-name="Path 57" d="M466.389,140.81h3.37a2.44,2.44,0,0,0,0-4.88h-3.37a2.44,2.44,0,1,0,0,4.88Zm0,0" transform="translate(-350.681 -102.744)"/>
  <path id="Path_58" data-name="Path 58" d="M400.233,140.81h3.37a2.44,2.44,0,1,0,0-4.88h-3.37a2.44,2.44,0,1,0,0,4.88Zm0,0" transform="translate(-300.676 -102.744)"/>
  <path id="Path_59" data-name="Path 59" d="M336.268,8.25a2.44,2.44,0,0,0,2.439-2.44V2.44a2.44,2.44,0,1,0-4.88,0V5.81A2.44,2.44,0,0,0,336.268,8.25Zm0,0" transform="translate(-252.328 0)"/>
  <path id="Path_60" data-name="Path 60" d="M336.268,74.4a2.44,2.44,0,0,0,2.439-2.44v-3.37a2.44,2.44,0,1,0-4.88,0v3.37A2.44,2.44,0,0,0,336.268,74.4Zm0,0" transform="translate(-252.328 -50.002)"/>
  <path id="Path_61" data-name="Path 61" d="M362.443,44.86h3.37a2.44,2.44,0,1,0,0-4.88h-3.37a2.44,2.44,0,0,0,0,4.88Zm0,0" transform="translate(-272.113 -30.22)"/>
  <path id="Path_62" data-name="Path 62" d="M296.288,44.86h3.37a2.44,2.44,0,1,0,0-4.88h-3.37a2.44,2.44,0,1,0,0,4.88Zm0,0" transform="translate(-222.108 -30.22)"/>
</svg>
