<svg xmlns="http://www.w3.org/2000/svg" viewBox="0 0 550 550"><defs><style>.cls-1{fill:#f3d065;}.cls-2{fill:#efc45c;}.cls-3{fill:#f5d783;}.cls-4{fill:#333;}.cls-5{fill:#635445;}.cls-6{fill:#d46669;}</style></defs><title>Asset 1</title><g id="Layer_2" data-name="Layer 2"><g id="Object"><circle class="cls-1" cx="275" cy="275" r="275"/><path class="cls-2" d="M418.88,40.29a273.72,273.72,0,0,1,43.26,148.12c0,151.88-123.12,275-275,275A273.7,273.7,0,0,1,43.26,422.8,274.81,274.81,0,0,0,275,549.68c151.88,0,275-123.13,275-275A274.81,274.81,0,0,0,418.88,40.29Z"/><path class="cls-3" d="M37.38,304c0-141,114.31-255.32,255.32-255.32a254.89,254.89,0,0,1,202.39,99.68A255.22,255.22,0,0,0,273.69,20.31c-141,0-255.32,114.31-255.32,255.32A254.23,254.23,0,0,0,71.3,431.27,254.17,254.17,0,0,1,37.38,304Z"/><ellipse class="cls-4" cx="173.69" cy="208.28" rx="20.26" ry="34.15"/><ellipse class="cls-4" cx="376.31" cy="208.28" rx="20.26" ry="34.15"/><path class="cls-5" d="M90.21,301C100.69,393.81,179.4,465.94,275,465.94S449.31,393.81,459.79,301Z"/><path class="cls-6" d="M147.36,415.15a185.81,185.81,0,0,0,250.92,4l-1.7-4C272.48,354.66,149,414.33,147.36,415.15Z"/></g></g></svg>